<?xml version="1.0" encoding="utf-8"?>
<!-- Generator: Adobe Illustrator 22.0.0, SVG Export Plug-In . SVG Version: 6.00 Build 0)  -->
<svg version="1.1" id="图层_1" xmlns="http://www.w3.org/2000/svg" xmlns:xlink="http://www.w3.org/1999/xlink" x="0px" y="0px"
	 viewBox="0 0 64 64" style="enable-background:new 0 0 64 64;" xml:space="preserve">
<style type="text/css">
	.st0{fill:none;}
	.st1{fill:#FFFFFF;}
</style>
<rect class="st0" width="64" height="64"/>
<g>
	<g>
		<path class="st1" d="M32,5c14.9,0,27,12.1,27,27S46.9,59,32,59S5,46.9,5,32S17.1,5,32,5 M32,1C14.8,1,1,14.8,1,32s13.8,31,31,31
			s31-13.8,31-31S49.2,1,32,1L32,1z"/>
	</g>
	<path class="st1" d="M32.2,21.1c0.7,0,1.4,0.2,2.1,0.6c1.3,0.8,2.1,2.1,2.1,3.6c0,1.3-0.6,2.5-1.7,3.3c-0.4,0.4-1.1,1.2-0.7,2.8
		c0,0,0,0.1,0,0.1l1.8,5.4c0.2,0.6,0.7,1,1.3,1.1l4.6,0.4l0.3,4.4H22.1l0.3-4.4l4.2-0.4c0.6-0.1,1.1-0.5,1.3-1l2-5.9
		c0.3-1.1,0.2-2.1-0.5-2.7c-0.8-0.8-1.3-1.9-1.3-3.1c0-1.5,0.8-2.9,2.1-3.6C30.7,21.3,31.5,21.1,32.2,21.1 M32.2,17.1
		c-1.5,0-2.9,0.4-4.1,1.1c-2.6,1.5-4.1,4.2-4.1,7.2c0,1.9,0.7,3.7,1.8,5.1l-1.2,3.6L22,34.4l-1.8,0.2c-1,0.1-1.7,0.9-1.8,1.9
		l-0.1,1.8L18,42.6l-0.1,2.2c-0.1,1.1,0.8,2.1,2,2.1h2.2h19.9h2.2c1.1,0,2-1,2-2.1L46,42.6l-0.3-4.4l-0.1-1.8
		c-0.1-1-0.8-1.8-1.8-1.9L42,34.4l-2.9-0.2l-1-3.1c1.4-1.5,2.3-3.5,2.3-5.7c0-3-1.5-5.7-4.1-7.2C35.1,17.5,33.6,17.1,32.2,17.1
		L32.2,17.1z"/>
</g>
</svg>
