<?xml version="1.0" encoding="utf-8"?>
<!-- Generator: Adobe Illustrator 22.0.0, SVG Export Plug-In . SVG Version: 6.00 Build 0)  -->
<svg version="1.1" id="图层_1" xmlns="http://www.w3.org/2000/svg" xmlns:xlink="http://www.w3.org/1999/xlink" x="0px" y="0px"
	 viewBox="0 0 64 64" style="enable-background:new 0 0 64 64;" xml:space="preserve">
<style type="text/css">
	.st0{fill:none;}
	.st1{fill:#FFFFFF;}
</style>
<rect class="st0" width="64" height="64"/>
<g>
	<path class="st1" d="M32,5c14.9,0,27,12.1,27,27S46.9,59,32,59S5,46.9,5,32S17.1,5,32,5 M32,1C14.8,1,1,14.8,1,32s13.8,31,31,31
		s31-13.8,31-31S49.2,1,32,1L32,1z"/>
</g>
<g>
	<path class="st1" d="M35.1,21.4c1.1,0,2.2,0.4,3.1,1.3c0.1,0.1,0.3,0.3,0.4,0.4c2.1,2.5-0.6,4.6,3.2,8.5c1.4,1.2,2.2,0.4,3.2,1.2
		c0.1,0.1,0.3,0.2,0.4,0.3c0.8,0.8,0.8,2.1,0,2.8c-0.4,0.4-0.9,0.6-1.4,0.6c-0.5,0-1-0.2-1.4-0.6c-0.2-0.2-0.3-0.4-0.4-0.6
		c-0.6-0.9,0.1-1.7-1.2-3.1c-2.4-2.3-4.2-2-5.8-2.1c-1.5,0.2-3.1,0.2-5.5,2.7c-3.8,3.8-1.6,5.5-3.4,7.8c-0.1,0.2-0.3,0.4-0.4,0.5
		c0,0,0,0,0,0c0,0,0,0-0.1,0.1c-0.8,0.8-1.9,1.2-3,1.2c-1.1,0-2.2-0.4-3.1-1.3c-1.8-1.8-1.6-4.7,0.2-6.4c0.7-0.6,1.6-1,2.5-1.1
		c0.6-0.1,1.1-0.1,1.7-0.2c1.6-0.3,2.9-1.2,4-2.3c4.1-4.1,1.2-5.7,3.9-8.4c0.1,0,0.1-0.1,0.2-0.2c0.4-0.4,0.8-0.7,1.2-0.9
		C33.9,21.5,34.5,21.4,35.1,21.4 M35.1,17.4c-1.2,0-2.4,0.3-3.5,0.8c-0.9,0.4-1.7,1-2.4,1.7l-0.1,0.1l0,0l0,0
		c-2.2,2.2-2.4,4.5-2.6,5.8c-0.1,1-0.1,1.4-1.3,2.6c-0.7,0.7-1.4,1.1-1.9,1.2c-0.2,0-0.5,0.1-0.8,0.1c-0.2,0-0.3,0-0.5,0
		c-1.7,0.2-3.4,0.9-4.7,2c-1.7,1.5-2.8,3.7-2.9,6c-0.1,2.3,0.8,4.6,2.4,6.2c1.6,1.6,3.7,2.4,5.9,2.4c2.1,0,4.2-0.8,5.8-2.3l0,0l0,0
		l0,0l0,0c0,0,0,0,0,0c0.3-0.3,0.6-0.6,0.8-1c1.4-1.9,1.5-3.6,1.7-4.8c0.1-1,0.1-1.4,1.3-2.6c1.4-1.4,1.9-1.4,2.9-1.5
		c0.1,0,0.2,0,0.3,0c1,0,1.4,0,2.2,0.7c0.1,0.5,0.2,1.4,0.7,2.4c0.3,0.6,0.7,1.1,1.1,1.6c1.1,1.1,2.6,1.8,4.2,1.8
		c1.6,0,3.1-0.6,4.2-1.8c1.1-1.1,1.8-2.6,1.8-4.2s-0.6-3.1-1.8-4.2c-0.3-0.3-0.7-0.6-1-0.8c-1.1-0.8-2.2-1-2.9-1
		c-0.7-0.8-0.7-1.2-0.7-2.2c0-1.3-0.1-3.5-1.9-5.6c-0.2-0.3-0.4-0.5-0.7-0.8C39.4,18.2,37.3,17.4,35.1,17.4L35.1,17.4z"/>
</g>
</svg>
