<?xml version="1.0" encoding="utf-8"?>
<!-- Generator: Adobe Illustrator 22.0.0, SVG Export Plug-In . SVG Version: 6.00 Build 0)  -->
<svg version="1.1" id="图层_1" xmlns="http://www.w3.org/2000/svg" xmlns:xlink="http://www.w3.org/1999/xlink" x="0px" y="0px"
	 viewBox="0 0 64 64" style="enable-background:new 0 0 64 64;" xml:space="preserve">
<style type="text/css">
	.st0{fill:none;}
	.st1{fill:#FFFFFF;}
	.st2{fill:#FFFFFF;stroke:#FFFFFF;stroke-width:0.75;stroke-miterlimit:10;}
	.st3{fill:#FFFFFF;stroke:#FFFFFF;stroke-miterlimit:10;}
</style>
<rect class="st0" width="64" height="64"/>
<g>
	<g>
		<path class="st1" d="M32,5c14.9,0,27,12.1,27,27S46.9,59,32,59S5,46.9,5,32S17.1,5,32,5 M32,1C14.8,1,1,14.8,1,32s13.8,31,31,31
			s31-13.8,31-31S49.2,1,32,1L32,1z"/>
	</g>
	<g>
		<path class="st2" d="M27.4,38L27.4,38c2.5,2.3,6.4,2.3,8.8,0.2l0.1-0.1c0.5-0.4,1.2-0.4,1.6,0c0.5,0.4,0.5,1.1,0,1.5
			c-3.3,3-8.8,2.9-12.2-0.2c-0.5-0.4-0.5-1.1,0-1.5C26.2,37.6,26.9,37.6,27.4,38L27.4,38z"/>
		<path class="st3" d="M48.4,28.4c0-2.7-2.6-4.7-5.8-4.9c-1.7-3.6-5.8-6.1-10.6-6.1c-4.8,0-8.9,2.5-10.6,6.1
			c-3.2,0.2-5.8,2.3-5.8,4.9c0,2.3,1.9,4.1,4.4,4.7c-1.2,1.5-1.9,3.3-1.9,5.2c0,5.7,6.3,10.3,13.9,10.3s13.9-4.5,13.9-10.3
			c0-1.9-0.7-3.7-1.9-5.2C46.5,32.5,48.4,30.7,48.4,28.4z M32,19.7c4.9,0,8.8,3.3,8.8,7.3c0,1-0.3,2-0.7,3C37.8,28.8,35,28,32,28
			s-5.8,0.7-8.1,1.9c-0.5-0.9-0.7-1.9-0.7-3C23.2,23,27.1,19.7,32,19.7z M18.1,28.4c0-1.1,1.1-2.2,2.6-2.5l0,0v0
			c-0.1,0.4-0.1,0.7-0.1,1.1c0,1.4,0.4,2.8,1.1,4.1C19.7,31,18.1,29.8,18.1,28.4z M32,46.3c-6.3,0-11.4-3.6-11.4-8c0-4.4,5-8,11.4-8
			s11.4,3.6,11.4,8C43.4,42.7,38.3,46.3,32,46.3z M42.3,31.1c0.7-1.3,1.1-2.7,1.1-4.1c0-0.4,0-0.7-0.1-1.1l0,0
			c1.5,0.4,2.6,1.4,2.6,2.5C45.9,29.8,44.3,31,42.3,31.1z"/>
	</g>
</g>
</svg>
