<svg xmlns="http://www.w3.org/2000/svg" xmlns:xlink="http://www.w3.org/1999/xlink" fill="none" version="1.1" width="22" height="22" viewBox="0 0 22 22"><defs><clipPath id="master_svg0_37_1098"><rect x="0" y="0" width="22" height="22" rx="0"/></clipPath></defs><g clip-path="url(#master_svg0_37_1098)"><g><path d="M18.5522,1.9969107075C18.3115,2.0144276875,18.0751,2.0709122875,17.8525,2.1641601875L17.8495,2.1641601875C17.6357,2.2489101875,16.6195,2.6764111875,15.0745,3.3244071875000003L9.53797,5.6561571875Q5.56522,7.3286571875,1.65997,8.975657187500001L1.70647,8.9576571875Q1.437223,9.0461571875,1.155973,9.2389071875C0.982219,9.3494771875,0.832703,9.494147187500001,0.716473,9.664157187499999C0.5784728,9.8666571875,0.4674728,10.1764071875,0.5087228,10.4966571875C0.5762228,11.0381571875,0.927223,11.3629071875,1.179223,11.5421571875Q1.434223,11.7236571875,1.67722,11.8084071875L1.68322,11.8084071875L5.34547,13.0421171875C5.50972,13.5694171875,6.46147,16.6984171875,6.69022,17.4191171875C6.82522,17.8496171875,6.95647,18.1189171875,7.12072,18.3244171875C7.20022,18.4294171875,7.29322,18.5171171875,7.40497,18.5876171875C7.46307,18.6214171875,7.52501,18.6481171875,7.58947,18.6671171875L7.55197,18.6581171875C7.56322,18.6611171875,7.57222,18.6701171875,7.58047,18.6731171875C7.61047,18.6814171875,7.63072,18.6844171875,7.66897,18.6904171875Q8.24873,18.8659171875,8.71447,18.5059171875L8.74072,18.4849171875L10.903,16.5161171875L14.527,19.2964171875L14.6095,19.3316171875C15.3647,19.6631171875,16.1297,19.4786171875,16.534,19.1531171875Q16.9412,18.8254171875,17.0995,18.4061171875L17.1257,18.3386171875L19.9262,3.9919071875C20.0057,3.6379071874999998,20.026,3.3064071875,19.9382,2.9846591875C19.8477,2.6590271875,19.6388,2.3789641875,19.3525,2.1994081875C19.112,2.0532448875,18.8332,1.9826948875,18.5522,1.9969107075ZM18.4765,3.5344071875000003C18.4735,3.5816571875000003,18.4825,3.5764071875,18.4615,3.6671571875L18.4615,3.6754071875000003L15.6872,17.8729171875C15.6752,17.8931171875,15.655,17.9374171875,15.5995,17.9816171875C15.541,18.0281171875,15.4945,18.0574171875,15.2507,17.9606171875L10.8182,14.5624171875L8.14072,17.0029171875L8.70322,13.4104171875L15.9452,6.6604071875Q16.2437,6.3829071875,16.144,6.3244071875Q16.165,5.9839071875,15.6932,6.2246571875L6.56122,11.8819071875L6.55822,11.8669071875L2.1812199999999997,10.3931571875L2.1812199999999997,10.3901571875L2.16997,10.3879071875C2.1776400000000002,10.3853571875,2.1851599999999998,10.3823571875,2.19247,10.3789071875L2.21647,10.3669071875L2.23972,10.3586571875Q6.14797,8.7116571875,10.12072,7.0391571875C12.1097,6.2014071875,14.1137,5.3576571875,15.655,4.706657187499999C17.1962,4.0594071875,18.3355,3.5846571875,18.4,3.5591571875000003C18.4615,3.5351571875000003,18.4322,3.5351571875000003,18.4765,3.5351571875000003L18.4765,3.5344071875000003Z" fill="#191A1A" fill-opacity="1" style="mix-blend-mode:passthrough"/></g></g></svg>