<?xml version="1.0" encoding="utf-8"?>
<!-- Generator: Adobe Illustrator 22.0.0, SVG Export Plug-In . SVG Version: 6.00 Build 0)  -->
<svg version="1.1" id="图层_1" xmlns="http://www.w3.org/2000/svg" xmlns:xlink="http://www.w3.org/1999/xlink" x="0px" y="0px"
	 viewBox="0 0 64 64" style="enable-background:new 0 0 64 64;" xml:space="preserve">
<style type="text/css">
	.st0{fill:none;}
	.st1{fill:#FFFFFF;}
	.st2{fill:none;stroke:#FFFFFF;stroke-width:4;stroke-linecap:round;stroke-miterlimit:10;}
</style>
<rect class="st0" width="64" height="64"/>
<g>
	<g>
		<path class="st1" d="M32,5c14.9,0,27,12.1,27,27S46.9,59,32,59S5,46.9,5,32S17.1,5,32,5 M32,1C14.8,1,1,14.8,1,32s13.8,31,31,31
			s31-13.8,31-31S49.2,1,32,1L32,1z"/>
	</g>
	<path class="st2" d="M39,23.7c-1.1-2.9-3.8-4.8-7-4.8c-2.1,0-4,0.8-5.4,2.2c-1.4,1.4-2.1,3.3-2.1,5.3v2.8h-1.3c-1.7,0-3,1.4-3,3
		v9.9c0,1.7,1.4,3,3,3h17.6c1.7,0,3-1.4,3-3v-9.3c0-2-1.6-3.7-3.7-3.7l0,0H24.5"/>
</g>
</svg>
