<svg xmlns="http://www.w3.org/2000/svg" width="48" height="48" viewBox="0 0 48 48">
  <g id="猿世界" transform="translate(-217.6 -149.333)">
    <path id="路径_3" data-name="路径 3" d="M241.6,197.333a24,24,0,1,1,24-24,24,24,0,0,1-24,24Zm0-44.522a20.522,20.522,0,1,0,20.522,20.522A20.522,20.522,0,0,0,241.6,152.811Z" transform="translate(0)" fill="#fff"/>
    <path id="路径_4" data-name="路径 4" d="M372.634,311.389l-8.207-4.321-8.207,4.321,1.567-9.154-6.64-6.49,9.176-1.34,4.1-8.325,4.1,8.325,9.176,1.34-6.64,6.49ZM358.7,298.214,361.556,301l-.652,3.951,3.522-1.958,3.522,1.852-.669-3.933,2.853-2.787-3.945-.423-1.761-3.527-1.761,3.527Z" transform="translate(-122.826 -125.77)" fill="#fff"/>
  </g>
</svg>
