<svg xmlns="http://www.w3.org/2000/svg" width="48" height="48" viewBox="0 0 48 48">
  <g id="订单" transform="translate(-0.478 0)">
    <path id="路径_9" data-name="路径 9" d="M241.6,197.333a24,24,0,1,1,24-24,24,24,0,0,1-24,24Zm0-44.522a20.522,20.522,0,1,0,20.522,20.522A20.522,20.522,0,0,0,241.6,152.811Z" transform="translate(-217.122 -149.333)" fill="#fff"/>
    <g id="组_2" data-name="组 2" transform="translate(-79.698 -79.725)">
      <path id="路径_10" data-name="路径 10" d="M108.763,116.246h-13.3a3.811,3.811,0,0,1-3.806-3.806v-13.3A7.95,7.95,0,0,1,99.59,91.2h13.3a3.811,3.811,0,0,1,3.806,3.806v13.3a7.95,7.95,0,0,1-7.935,7.935ZM99.59,93.355a5.792,5.792,0,0,0-5.783,5.783v13.3a1.653,1.653,0,0,0,1.654,1.654h13.3a5.792,5.792,0,0,0,5.783-5.783v-13.3a1.653,1.653,0,0,0-1.654-1.654Z" fill="#fff"/>
      <path id="路径_11" data-name="路径 11" d="M311.243,377.348h-5.716a1.076,1.076,0,1,1,0-2.152h5.716a1.076,1.076,0,1,1,0,2.152Zm3.214,5.985h-9.522a1.076,1.076,0,0,1,0-2.152h9.522a1.076,1.076,0,1,1,0,2.152Z" transform="translate(-205.883 -275.533)" fill="#fff"/>
    </g>
  </g>
</svg>
