<svg xmlns="http://www.w3.org/2000/svg" width="48" height="48" viewBox="0 0 48 48">
  <g id="收益" transform="translate(-0.202 0)">
    <path id="路径_9" data-name="路径 9" d="M241.6,197.333a24,24,0,1,1,24-24,24,24,0,0,1-24,24Zm0-44.522a20.522,20.522,0,1,0,20.522,20.522A20.522,20.522,0,0,0,241.6,152.811Z" transform="translate(-217.398 -149.333)" fill="#fff"/>
    <path id="路径_50" data-name="路径 50" d="M96.141,75.948c0-.673-.423-1.626-2.441-2.348a17.4,17.4,0,0,0-10.142,0c-2.018.722-2.442,1.675-2.442,2.348a1.549,1.549,0,0,0,.005.3.683.683,0,0,0-.052.19v2.941a1.63,1.63,0,0,0,.028.3.654.654,0,0,0-.028.189v1.443a20.675,20.675,0,0,0-2.266-.133,15.57,15.57,0,0,0-5.059.755c-2.018.72-2.436,1.673-2.436,2.346a1.667,1.667,0,0,0,.085.3c-.019.062.026.126.026.189v2.941a1.542,1.542,0,0,0,.029.3.649.649,0,0,0-.029.189v2.942a1.56,1.56,0,0,0,.029.3.638.638,0,0,0-.029.188v2.941c0,.673.371,1.626,2.388,2.347a17.262,17.262,0,0,0,10.1,0c2.018-.721,2.426-1.674,2.426-2.347V92.637a20.72,20.72,0,0,0,2.292.135,15.174,15.174,0,0,0,4.994-.755c2.018-.721,2.364-1.675,2.364-2.348V86.73a.633.633,0,0,0-.029-.19,1.532,1.532,0,0,0,.029-.3V83.3a.634.634,0,0,0-.029-.19,1.5,1.5,0,0,0,.029-.3V79.868a.626.626,0,0,0-.029-.19,1.52,1.52,0,0,0,.029-.3V76.437c0-.065.069-.128.05-.19.019-.1.107-.2.107-.3ZM88.628,91.469a17.7,17.7,0,0,1-2.3-.146,1.566,1.566,0,0,0,.008-.182V89.207a20.749,20.749,0,0,0,2.292.135,16.538,16.538,0,0,0,5.207-.756,4.38,4.38,0,0,1,1.274-.519v1.6c0,.192-.464.674-1.711,1.119a15.169,15.169,0,0,1-4.767.68Zm4.767-4.11a14.763,14.763,0,0,1-4.7.68,18.01,18.01,0,0,1-2.336-.147c.006-.059-.026-.119-.026-.182V85.775a20.657,20.657,0,0,0,2.292.135,16.574,16.574,0,0,0,5.207-.755,4.385,4.385,0,0,1,1.274-.518v1.6c0,.192-.464.673-1.711,1.119Zm0-3.431a14.767,14.767,0,0,1-4.7.68,18.2,18.2,0,0,1-2.334-.147c.006-.059-.007-.119-.007-.182,0-.672-.228-1.626-2.247-2.348-.447-.158-1.284-.295-1.284-.406v-.319c0,.191.5.365.936.519a14.979,14.979,0,0,0,4.97.755,16.182,16.182,0,0,0,5.154-.755c.435-.155.345-.33,1.222-.519v1.6c0,.192-.464.673-1.711,1.119ZM93.356,80.5a15.355,15.355,0,0,1-4.807.681,15.184,15.184,0,0,1-4.782-.681c-1.276-.445-1.655-.926-1.655-1.118v-1.6c0,.19.729.363,1.174.519a16.35,16.35,0,0,0,5.191.756,17.271,17.271,0,0,0,5.326-.756,4.524,4.524,0,0,1,1.3-.519v1.6c0,.192-.475.674-1.75,1.118Zm-.095-3.429a16.143,16.143,0,0,1-9.266,0c-1.247-.446-1.577-.927-1.577-1.118s.33-.675,1.577-1.12a16.149,16.149,0,0,1,9.267,0c1.247.446,1.577.927,1.577,1.12s-.331.672-1.577,1.118Zm-7.805,15.9v1.6c0,.193-.54.675-1.787,1.119a15.009,15.009,0,0,1-4.738.679,15.717,15.717,0,0,1-4.845-.679c-1.247-.444-1.789-.925-1.789-1.119v-1.6a4.69,4.69,0,0,1,1.3.518,16.143,16.143,0,0,0,5.151.754,17.281,17.281,0,0,0,5.32-.754,5.761,5.761,0,0,1,1.391-.52Zm-1.787-.708a15,15,0,0,1-4.738.68,15.706,15.706,0,0,1-4.845-.68c-1.247-.446-1.789-.926-1.789-1.118v-1.6a4.686,4.686,0,0,1,1.3.518,16.14,16.14,0,0,0,5.151.756,17.28,17.28,0,0,0,5.32-.756,5.774,5.774,0,0,1,1.391-.519v1.6c0,.192-.54.672-1.787,1.118Zm0-3.43a14.99,14.99,0,0,1-4.738.679,15.687,15.687,0,0,1-4.844-.679c-1.247-.447-1.79-.927-1.79-1.119v-1.6a4.736,4.736,0,0,1,1.3.52,16.177,16.177,0,0,0,5.151.755,17.31,17.31,0,0,0,5.32-.755,5.776,5.776,0,0,1,1.391-.52v1.6c0,.191-.54.672-1.787,1.119ZM83.46,85.4a16.146,16.146,0,0,1-9.267,0c-1.247-.446-1.577-.927-1.577-1.118s.33-.673,1.577-1.119a16.128,16.128,0,0,1,9.267,0c1.248.447,1.577.927,1.577,1.119s-.331.673-1.577,1.118Zm0,0" transform="translate(-59.106 -60.845)" fill="#fff"/>
  </g>
</svg>
