<svg xmlns="http://www.w3.org/2000/svg" width="48" height="48" viewBox="0 0 48 48">
  <g id="系统设置" transform="translate(-0.478 0)">
    <path id="路径_9" data-name="路径 9" d="M241.6,197.333a24,24,0,1,1,24-24,24,24,0,0,1-24,24Zm0-44.522a20.522,20.522,0,1,0,20.522,20.522A20.522,20.522,0,0,0,241.6,152.811Z" transform="translate(-217.122 -149.333)" fill="#fff"/>
    <path id="路径_12" data-name="路径 12" d="M170.436,177.782a1.768,1.768,0,0,0-1.24-1.3l-.432-.1a4.306,4.306,0,0,1-2.949-5.132l.135-.406a1.779,1.779,0,0,0-.505-1.725,12.036,12.036,0,0,0-1.553-1.006,12.838,12.838,0,0,0-1.641-.839,1.768,1.768,0,0,0-1.745.422l-.3.323a4.308,4.308,0,0,1-5.919-.01l-.292-.313a1.765,1.765,0,0,0-1.745-.422,12.593,12.593,0,0,0-1.646.839,11.844,11.844,0,0,0-1.547,1.011,1.763,1.763,0,0,0-.505,1.719l.125.412a4.305,4.305,0,0,1-2.964,5.132l-.417.094a1.768,1.768,0,0,0-1.24,1.3,18.188,18.188,0,0,0,0,3.689,1.76,1.76,0,0,0,1.24,1.3l.406.094a4.314,4.314,0,0,1,2.97,5.142l-.12.4a1.779,1.779,0,0,0,.505,1.725,18.075,18.075,0,0,0,3.194,1.844,1.768,1.768,0,0,0,1.745-.422l.287-.307a4.313,4.313,0,0,1,5.94.005l.287.307a1.765,1.765,0,0,0,1.745.422,12.593,12.593,0,0,0,1.646-.839,11.609,11.609,0,0,0,1.547-1.006,1.772,1.772,0,0,0,.505-1.725l-.125-.417a4.307,4.307,0,0,1,2.97-5.127l.406-.094a1.768,1.768,0,0,0,1.24-1.3,12.072,12.072,0,0,0,.094-1.844,12.4,12.4,0,0,0-.1-1.85Zm-13.186,7.143a5.3,5.3,0,1,1,5.3-5.293A5.3,5.3,0,0,1,157.25,184.925Z" transform="translate(-132.769 -155.629)" fill="#fff"/>
  </g>
</svg>
