<svg xmlns="http://www.w3.org/2000/svg" width="48" height="48" viewBox="0 0 48 48">
  <g id="用戶管理" transform="translate(747 -201)">
    <path id="數據概览" d="M109.333,133.333a24,24,0,1,1,24-24,24,24,0,0,1-24,24Zm0-3.6a20.4,20.4,0,1,0-20.4-20.4A20.4,20.4,0,0,0,109.333,129.733Z" transform="translate(-832.333 115.667)" fill="#fff"/>
    <path id="用戶管理-2" data-name="用戶管理" d="M97.2,97.739a11.689,11.689,0,0,0-6.6-7.729,8.655,8.655,0,1,0-9.3,0,11.6,11.6,0,0,0-6.627,7.729,1.545,1.545,0,0,0,1.1,1.877,2.045,2.045,0,0,0,.387.05,1.536,1.536,0,0,0,1.49-1.157,8.548,8.548,0,0,1,16.546,0,1.542,1.542,0,0,0,1.877,1.1A1.514,1.514,0,0,0,97.2,97.739Zm-11.247-20.6a5.571,5.571,0,1,1-5.571,5.571A5.567,5.567,0,0,1,85.958,77.142Z" transform="translate(-808.944 137.912)" fill="#fff"/>
  </g>
</svg>
